<mxfile host="app.diagrams.net" agent="Mozilla/5.0 (Windows NT 10.0; Win64; x64) AppleWebKit/537.36 (KHTML, like Gecko) Chrome/137.0.0.0 Safari/537.36" version="27.1.4">
  <diagram name="ページ1" id="Tz32hYnaOwYIBj_vYGMN">
    <mxGraphModel dx="802" dy="493" grid="1" gridSize="10" guides="1" tooltips="1" connect="1" arrows="1" fold="1" page="1" pageScale="1" pageWidth="1169" pageHeight="827" math="0" shadow="0">
      <root>
        <mxCell id="0" />
        <mxCell id="1" parent="0" />
        <mxCell id="VWtdcPpH-dzznXyx7XUg-1" value="差分の検出機構&lt;div&gt;～&lt;span style=&quot;background-color: transparent; color: light-dark(rgb(0, 0, 0), rgb(255, 255, 255));&quot;&gt;工学的なモデル：異常検出～&lt;/span&gt;&lt;/div&gt;" style="text;html=1;align=center;verticalAlign=middle;whiteSpace=wrap;rounded=0;fillColor=#dae8fc;strokeColor=#6c8ebf;" vertex="1" parent="1">
          <mxGeometry x="40" y="40" width="200" height="40" as="geometry" />
        </mxCell>
        <mxCell id="VWtdcPpH-dzznXyx7XUg-2" value="Input" style="rounded=1;whiteSpace=wrap;html=1;" vertex="1" parent="1">
          <mxGeometry x="40" y="100" width="80" height="40" as="geometry" />
        </mxCell>
        <mxCell id="VWtdcPpH-dzznXyx7XUg-3" value="Output" style="rounded=1;whiteSpace=wrap;html=1;" vertex="1" parent="1">
          <mxGeometry x="590" y="100" width="80" height="40" as="geometry" />
        </mxCell>
        <mxCell id="VWtdcPpH-dzznXyx7XUg-4" value="&lt;div&gt;特性検出&lt;/div&gt;&lt;div&gt;Characteristic detection&lt;/div&gt;" style="rounded=1;whiteSpace=wrap;html=1;" vertex="1" parent="1">
          <mxGeometry x="230" y="100" width="80" height="110" as="geometry" />
        </mxCell>
        <mxCell id="VWtdcPpH-dzznXyx7XUg-5" value="&lt;div&gt;異常検出&lt;/div&gt;Anomal&lt;span style=&quot;background-color: transparent; color: light-dark(rgb(0, 0, 0), rgb(255, 255, 255));&quot;&gt;y&lt;/span&gt;&lt;div&gt;&lt;div&gt;Detect&lt;/div&gt;&lt;/div&gt;" style="rounded=1;whiteSpace=wrap;html=1;" vertex="1" parent="1">
          <mxGeometry x="410" y="150" width="80" height="130" as="geometry" />
        </mxCell>
        <mxCell id="VWtdcPpH-dzznXyx7XUg-6" value="" style="endArrow=classic;html=1;rounded=0;exitX=1;exitY=0.5;exitDx=0;exitDy=0;" edge="1" parent="1" source="VWtdcPpH-dzznXyx7XUg-2">
          <mxGeometry width="50" height="50" relative="1" as="geometry">
            <mxPoint x="450" y="220" as="sourcePoint" />
            <mxPoint x="230" y="120" as="targetPoint" />
          </mxGeometry>
        </mxCell>
        <mxCell id="VWtdcPpH-dzznXyx7XUg-9" value="" style="endArrow=classic;html=1;rounded=0;entryX=0;entryY=0.5;entryDx=0;entryDy=0;" edge="1" parent="1" target="VWtdcPpH-dzznXyx7XUg-3">
          <mxGeometry width="50" height="50" relative="1" as="geometry">
            <mxPoint x="310" y="120" as="sourcePoint" />
            <mxPoint x="350" y="180" as="targetPoint" />
          </mxGeometry>
        </mxCell>
        <mxCell id="VWtdcPpH-dzznXyx7XUg-11" value="" style="endArrow=classic;html=1;rounded=0;entryX=-0.005;entryY=0.22;entryDx=0;entryDy=0;exitX=1.013;exitY=0.714;exitDx=0;exitDy=0;exitPerimeter=0;entryPerimeter=0;" edge="1" parent="1" source="VWtdcPpH-dzznXyx7XUg-4" target="VWtdcPpH-dzznXyx7XUg-5">
          <mxGeometry width="50" height="50" relative="1" as="geometry">
            <mxPoint x="370" y="192.5" as="sourcePoint" />
            <mxPoint x="410" y="177.5" as="targetPoint" />
          </mxGeometry>
        </mxCell>
        <mxCell id="VWtdcPpH-dzznXyx7XUg-14" value="入力データ" style="text;html=1;align=center;verticalAlign=middle;whiteSpace=wrap;rounded=0;" vertex="1" parent="1">
          <mxGeometry x="140" y="90" width="80" height="30" as="geometry" />
        </mxCell>
        <mxCell id="VWtdcPpH-dzznXyx7XUg-16" value="出力データ" style="text;html=1;align=center;verticalAlign=middle;whiteSpace=wrap;rounded=0;" vertex="1" parent="1">
          <mxGeometry x="500" y="90" width="80" height="30" as="geometry" />
        </mxCell>
        <mxCell id="VWtdcPpH-dzznXyx7XUg-17" value="Output&lt;div&gt;Judge&lt;/div&gt;" style="rounded=1;whiteSpace=wrap;html=1;" vertex="1" parent="1">
          <mxGeometry x="590" y="180" width="80" height="40" as="geometry" />
        </mxCell>
        <mxCell id="VWtdcPpH-dzznXyx7XUg-18" value="" style="endArrow=classic;html=1;rounded=0;entryX=0;entryY=0.5;entryDx=0;entryDy=0;exitX=0.986;exitY=0.299;exitDx=0;exitDy=0;exitPerimeter=0;" edge="1" parent="1">
          <mxGeometry width="50" height="50" relative="1" as="geometry">
            <mxPoint x="489.9999999999999" y="199.70999999999998" as="sourcePoint" />
            <mxPoint x="591.12" y="199.81" as="targetPoint" />
          </mxGeometry>
        </mxCell>
        <mxCell id="VWtdcPpH-dzznXyx7XUg-19" value="判定結果" style="text;html=1;align=center;verticalAlign=middle;whiteSpace=wrap;rounded=0;" vertex="1" parent="1">
          <mxGeometry x="500" y="170" width="80" height="30" as="geometry" />
        </mxCell>
        <mxCell id="VWtdcPpH-dzznXyx7XUg-21" value="Input&lt;div&gt;Ref&lt;/div&gt;" style="rounded=1;whiteSpace=wrap;html=1;" vertex="1" parent="1">
          <mxGeometry x="40" y="230" width="80" height="40" as="geometry" />
        </mxCell>
        <mxCell id="VWtdcPpH-dzznXyx7XUg-22" value="" style="endArrow=classic;html=1;rounded=0;entryX=0;entryY=0.797;entryDx=0;entryDy=0;entryPerimeter=0;exitX=1;exitY=0.5;exitDx=0;exitDy=0;" edge="1" parent="1" source="VWtdcPpH-dzznXyx7XUg-21">
          <mxGeometry width="50" height="50" relative="1" as="geometry">
            <mxPoint x="160" y="250.39" as="sourcePoint" />
            <mxPoint x="410" y="250" as="targetPoint" />
          </mxGeometry>
        </mxCell>
        <mxCell id="VWtdcPpH-dzznXyx7XUg-23" value="基準データ&lt;div&gt;(過去データベース)&lt;/div&gt;" style="text;html=1;align=center;verticalAlign=middle;whiteSpace=wrap;rounded=0;" vertex="1" parent="1">
          <mxGeometry x="130" y="210" width="120" height="40" as="geometry" />
        </mxCell>
        <mxCell id="VWtdcPpH-dzznXyx7XUg-29" value="" style="endArrow=classic;html=1;rounded=0;entryX=0;entryY=0.5;entryDx=0;entryDy=0;exitX=0.986;exitY=0.299;exitDx=0;exitDy=0;exitPerimeter=0;" edge="1" parent="1">
          <mxGeometry width="50" height="50" relative="1" as="geometry">
            <mxPoint x="490" y="259.43" as="sourcePoint" />
            <mxPoint x="591" y="259.43" as="targetPoint" />
          </mxGeometry>
        </mxCell>
        <mxCell id="VWtdcPpH-dzznXyx7XUg-30" value="Output&lt;div&gt;Ref&lt;/div&gt;" style="rounded=1;whiteSpace=wrap;html=1;" vertex="1" parent="1">
          <mxGeometry x="590" y="240" width="80" height="40" as="geometry" />
        </mxCell>
        <mxCell id="VWtdcPpH-dzznXyx7XUg-31" value="基準データ&lt;div&gt;(反映後)&lt;/div&gt;" style="text;html=1;align=center;verticalAlign=middle;whiteSpace=wrap;rounded=0;" vertex="1" parent="1">
          <mxGeometry x="500" y="230" width="80" height="30" as="geometry" />
        </mxCell>
        <mxCell id="VWtdcPpH-dzznXyx7XUg-32" value="領域2:異常" style="rounded=0;whiteSpace=wrap;html=1;fillColor=#fff2cc;strokeColor=#d6b656;verticalAlign=top;" vertex="1" parent="1">
          <mxGeometry x="190" y="330" width="250" height="130" as="geometry" />
        </mxCell>
        <mxCell id="VWtdcPpH-dzznXyx7XUg-33" value="&lt;div&gt;領域1:&lt;span style=&quot;background-color: transparent; color: light-dark(rgb(0, 0, 0), rgb(255, 255, 255));&quot;&gt;正常&lt;/span&gt;&lt;/div&gt;" style="rounded=1;whiteSpace=wrap;html=1;fillColor=#d5e8d4;strokeColor=#82b366;" vertex="1" parent="1">
          <mxGeometry x="255" y="365" width="120" height="60" as="geometry" />
        </mxCell>
        <mxCell id="VWtdcPpH-dzznXyx7XUg-34" value="例：基準データ" style="text;html=1;align=center;verticalAlign=middle;whiteSpace=wrap;rounded=0;" vertex="1" parent="1">
          <mxGeometry x="190" y="300" width="120" height="30" as="geometry" />
        </mxCell>
        <mxCell id="VWtdcPpH-dzznXyx7XUg-36" value="特性データ" style="text;html=1;align=center;verticalAlign=middle;whiteSpace=wrap;rounded=0;" vertex="1" parent="1">
          <mxGeometry x="320" y="150" width="80" height="30" as="geometry" />
        </mxCell>
      </root>
    </mxGraphModel>
  </diagram>
</mxfile>
